# skybox.obj
#

o skybox
mtllib skybox.mtl

v -1.00000 -1.00000 1.00000
v 1.00000 -1.00000 1.00000
v -1.00000 1.00000 1.00000
v 1.00000 1.00000 1.00000
v -1.00000 1.00000 -1.00000
v 1.00000 1.00000 -1.00000
v -1.00000 -1.00000 -1.00000
v 1.00000 -1.00000 -1.00000

#vt1
vt 0.000000 0.333333 
#vt2
vt 0.000000 0.666666 
#vt3
vt 0.25 0.000000 
#vt4
vt 0.25 0.333333 
#vt5
vt 0.25 0.666666 
#vt6
vt 0.25 1.000000 
#vt7
vt 0.5 0.000000 
#vt8
vt 0.5 0.333333 
#vt9
vt 0.5 0.666666 
#vt10
vt 0.5 1.000000 
#vt11
vt 0.75 0.333333 
#vt12
vt 0.75 0.666666 
#vt13
vt 1.0 0.333333 
#vt14
vt 1.0 0.666666 


#vn1
vn 0.000000 0.000000 -1.000000
#vn2
vn 0.000000 -1.000000 0.000000
#vn3
vn 0.000000 0.000000 1.000000
#vn4
vn 0.000000 1.000000 0.000000
#vn5
vn -1.000000 0.000000 0.000000
#vn6
vn 1.000000 0.000000 0.000000

g skybox
usemtl skybox
s 1
f 3/8/1 2/12/1 1/9/1
f 4/11/1 2/12/1 3/8/1
s 2
f 5/4/2 4/7/2 3/8/2
f 6/3/2 4/7/2 5/4/2
s 3
f 7/5/3 6/1/3 5/4/3
f 8/2/3 6/1/3 7/5/3
s 4
f 1/9/4 8/6/4 7/5/4
f 2/10/4 8/6/4 1/9/4
s 5
f 4/11/5 8/14/5 2/12/5
f 6/13/5 8/14/5 4/11/5
s 6
f 5/4/6 1/9/6 7/5/6
f 3/8/6 1/9/6 5/4/6
